<svg width="86" height="86" viewBox="0 0 86 86" fill="none" xmlns="http://www.w3.org/2000/svg">
<path d="M68.2728 19.8003H66.8534L54.8597 7.80657C53.9016 6.84849 52.3403 6.84849 51.3467 7.80657C50.3887 8.76465 50.3887 10.326 51.3467 11.3195L59.8275 19.8003H25.3367L33.8174 11.3195C34.7755 10.3615 34.7755 8.80014 33.8174 7.80657C32.8594 6.84849 31.298 6.84849 30.3045 7.80657L18.3462 19.8003H16.9268C13.7332 19.8003 7.09766 19.8003 7.09766 28.8843C7.09766 32.3263 7.80734 34.5973 9.29769 36.0877C10.1493 36.9748 11.1784 37.4361 12.2784 37.6845C13.3074 37.9328 14.4074 37.9683 15.472 37.9683H69.6922C70.7922 37.9683 71.8213 37.8974 72.8148 37.6845C75.7955 36.9748 78.0665 34.8457 78.0665 28.8843C78.0665 19.8003 71.4309 19.8003 68.2728 19.8003Z" fill="#FF9635"/>
<path d="M67.737 42.5813H17.4201C15.22 42.5813 13.5523 44.5329 13.9071 46.6975L16.8878 64.9365C17.8814 71.0398 20.5427 78.0657 32.359 78.0657H52.2658C64.224 78.0657 66.3531 72.0689 67.6305 65.3623L71.2145 46.8039C71.6403 44.6039 69.9725 42.5813 67.737 42.5813ZM49.3916 67.0301C48.8948 67.5623 48.2206 67.8107 47.5109 67.8107C46.8367 67.8107 46.1625 67.5623 45.6302 67.0301L42.6495 64.0139L39.5269 67.1365C38.9946 67.6688 38.3204 67.9172 37.6462 67.9172C36.9365 67.9172 36.2623 67.6688 35.7655 67.1365C34.701 66.1075 34.701 64.4397 35.7655 63.3752L38.8882 60.2525L35.872 57.2718C34.8074 56.2073 34.8074 54.5396 35.872 53.5105C36.901 52.446 38.5688 52.446 39.6333 53.5105L42.6495 56.4912L45.5237 53.617C46.5883 52.5524 48.2561 52.5524 49.2851 53.617C50.3496 54.646 50.3496 56.3138 49.2851 57.3783L46.4109 60.2525L49.3916 63.2687C50.4561 64.3333 50.4561 66.001 49.3916 67.0301Z" fill="#FF9635"/>
</svg>
