<svg width="84" height="84" viewBox="0 0 84 84" fill="none" xmlns="http://www.w3.org/2000/svg">
<path d="M67.34 19.53H65.94L54.11 7.69996C53.165 6.75496 51.625 6.75496 50.645 7.69996C49.7 8.64496 49.7 10.185 50.645 11.165L59.01 19.53H24.99L33.355 11.165C34.3 10.22 34.3 8.67996 33.355 7.69996C32.41 6.75496 30.87 6.75496 29.89 7.69996L18.095 19.53H16.695C13.545 19.53 7 19.53 7 28.49C7 31.885 7.7 34.125 9.17 35.595C10.01 36.47 11.025 36.925 12.11 37.17C13.125 37.415 14.21 37.45 15.26 37.45H68.74C69.825 37.45 70.84 37.38 71.82 37.17C74.76 36.47 77 34.37 77 28.49C77 19.53 70.455 19.53 67.34 19.53Z" fill="#4F8BFF"/>
<path d="M66.6733 42.0001H17.0433C14.8733 42.0001 13.2283 43.9251 13.5783 46.0601L16.5183 64.0501C17.4983 70.0701 20.1233 77.0001 31.7783 77.0001H51.4133C63.2083 77.0001 65.3083 71.0851 66.5683 64.4701L70.1033 46.1651C70.5233 43.9951 68.8783 42.0001 66.6733 42.0001ZM41.9983 68.2501C33.8083 68.2501 27.1233 61.5651 27.1233 53.3751C27.1233 51.9401 28.3133 50.7501 29.7483 50.7501C31.1833 50.7501 32.3733 51.9401 32.3733 53.3751C32.3733 58.6951 36.6783 63.0001 41.9983 63.0001C47.3183 63.0001 51.6233 58.6951 51.6233 53.3751C51.6233 51.9401 52.8133 50.7501 54.2483 50.7501C55.6833 50.7501 56.8733 51.9401 56.8733 53.3751C56.8733 61.5651 50.1883 68.2501 41.9983 68.2501Z" fill="#4F8BFF"/>
</svg>
