<svg width="84" height="84" viewBox="0 0 84 84" fill="none" xmlns="http://www.w3.org/2000/svg">
<path d="M67.34 19.53H65.94L54.11 7.69996C53.165 6.75496 51.625 6.75496 50.645 7.69996C49.7 8.64496 49.7 10.185 50.645 11.165L59.01 19.53H24.99L33.355 11.165C34.3 10.22 34.3 8.67996 33.355 7.69996C32.41 6.75496 30.87 6.75496 29.89 7.69996L18.095 19.53H16.695C13.545 19.53 7 19.53 7 28.49C7 31.885 7.7 34.125 9.17 35.595C10.01 36.47 11.025 36.925 12.11 37.17C13.125 37.415 14.21 37.45 15.26 37.45H68.74C69.825 37.45 70.84 37.38 71.82 37.17C74.76 36.47 77 34.37 77 28.49C77 19.53 70.455 19.53 67.34 19.53Z" fill="#35F55F"/>
<path d="M66.8101 42.0001H17.1801C15.0101 42.0001 13.3651 43.9251 13.7151 46.0601L16.6551 64.0501C17.6351 70.0701 20.2601 77.0001 31.9151 77.0001H51.5501C63.3451 77.0001 65.4451 71.0851 66.7051 64.4701L70.2401 46.1651C70.6601 43.9951 69.0151 42.0001 66.8101 42.0001ZM52.0751 56.1751L40.7001 66.6751C40.2101 67.1301 39.5801 67.3751 38.9151 67.3751C38.2501 67.3751 37.5851 67.1301 37.0601 66.6051L31.8101 61.3551C30.7951 60.3401 30.7951 58.6601 31.8101 57.6451C32.8601 56.6301 34.5051 56.6301 35.5551 57.6451L39.0201 61.1101L48.5401 52.3251C49.5901 51.3451 51.2701 51.4151 52.2501 52.4651C53.2301 53.5501 53.1601 55.1951 52.0751 56.1751Z" fill="#35F55F"/>
</svg>
